<?xml version="1.0" encoding="utf-8"?>
<!-- Generator: Adobe Illustrator 24.0.0, SVG Export Plug-In . SVG Version: 6.00 Build 0)  -->
<svg version="1.1" id="Layer_1" xmlns="http://www.w3.org/2000/svg" xmlns:xlink="http://www.w3.org/1999/xlink" x="0px" y="0px"
	 viewBox="0 0 640.01 479.99" style="enable-background:new 0 0 640.01 479.99;" xml:space="preserve">
<style type="text/css">
	.st0{fill:#2ABBA7;stroke:#2ABBA7;stroke-miterlimit:10;}
</style>
<polygon class="st0" points="269.27,15.77 378.7,127.74 532.98,101.07 460.31,239.74 533.35,378.23 379,351.96 269.87,464.22 
	247.15,309.31 106.66,240.21 246.96,170.74 "/>
<polygon class="st0" points="152.36,321.77 168.6,338.38 191.49,334.43 180.7,355 191.54,375.55 168.64,371.65 152.45,388.3 
	149.08,365.32 128.24,355.07 149.05,344.76 "/>
<polygon class="st0" points="161.25,83.15 173.8,96 191.5,92.94 183.16,108.84 191.54,124.73 173.84,121.72 161.32,134.59 
	158.71,116.82 142.6,108.9 158.69,100.93 "/>
<polygon class="st0" points="400.2,50.33 408.21,58.52 419.51,56.57 414.19,66.72 419.53,76.86 408.23,74.94 400.25,83.15 
	398.58,71.82 388.3,66.76 398.57,61.67 "/>
<polygon class="st0" points="527.24,213.65 534.03,220.59 543.59,218.93 539.08,227.53 543.61,236.11 534.04,234.49 527.28,241.44 
	525.87,231.84 517.16,227.56 525.86,223.25 "/>
<polygon class="st0" points="389.37,395.37 395.03,401.17 403.01,399.79 399.25,406.96 403.03,414.12 395.05,412.76 389.4,418.57 
	388.23,410.56 380.96,406.98 388.22,403.39 "/>
</svg>
